<svg aria-hidden="true" style="position: absolute; width: 0; height: 0; overflow: hidden;" version="1.1" xmlns="http://www.w3.org/2000/svg" xmlns:xlink="http://www.w3.org/1999/xlink">
<defs>
<symbol id="logo" viewBox="0 0 128 32">
<path fill="#fff" style="fill: var(--color1, #fff)" d="M16 0c-8.832 0-16 7.168-16 16s7.168 16 16 16c8.832 0 16-7.168 16-16s-7.168-16-16-16zM31.36 16c0 1.104-0.128 2.16-0.352 3.2l-1.84-0.592c0.16-0.848 0.256-1.712 0.256-2.592s-0.096-1.76-0.256-2.592l1.84-0.592c0.224 1.008 0.352 2.064 0.352 3.168zM14.4 29.28v1.92c-2.192-0.224-4.224-0.896-6.048-1.952l1.136-1.552c1.488 0.816 3.136 1.376 4.912 1.584zM17.6 29.28c1.776-0.208 3.424-0.752 4.912-1.6l1.136 1.552c-1.824 1.056-3.856 1.728-6.048 1.952v-1.904zM16 28.8c-7.072 0-12.8-5.728-12.8-12.8s5.728-12.8 12.8-12.8c7.072 0 12.8 5.728 12.8 12.8s-5.728 12.8-12.8 12.8zM0.64 16c0-1.104 0.128-2.16 0.352-3.2l1.84 0.592c-0.16 0.848-0.256 1.712-0.256 2.592s0.096 1.76 0.256 2.592l-1.84 0.592c-0.224-1.008-0.352-2.064-0.352-3.168zM17.6 2.72v-1.92c2.192 0.224 4.224 0.896 6.048 1.952l-1.136 1.552c-1.488-0.816-3.136-1.376-4.912-1.584zM14.4 2.72c-1.776 0.208-3.424 0.752-4.912 1.6l-1.136-1.552c1.824-1.056 3.856-1.728 6.048-1.952v1.904zM30.016 9.76l-1.856 0.608c-0.736-1.584-1.776-3.008-3.056-4.192l1.12-1.552c1.6 1.44 2.896 3.168 3.792 5.136zM5.76 4.64l1.12 1.552c-1.264 1.184-2.304 2.592-3.056 4.192l-1.856-0.608c0.912-1.984 2.208-3.712 3.792-5.136zM1.984 22.24l1.856-0.608c0.736 1.584 1.776 3.008 3.056 4.192l-1.12 1.552c-1.6-1.44-2.896-3.168-3.792-5.136zM26.24 27.36l-1.12-1.552c1.264-1.184 2.304-2.592 3.056-4.192l1.856 0.608c-0.912 1.984-2.208 3.712-3.792 5.136z"></path>
<path fill="#e21f26" style="fill: var(--color2, #e21f26)" d="M16.048 25.6c-1.36 0-2.688-0.208-3.984-0.624s-2.384-1.008-3.264-1.792l2.016-3.264c0.384 0.416 0.864 0.768 1.44 1.072s1.2 0.528 1.872 0.688c0.656 0.16 1.312 0.24 1.936 0.24 0.88 0 1.584-0.144 2.144-0.448s0.832-0.752 0.832-1.328c0-0.48-0.208-0.864-0.608-1.184s-1.152-0.64-2.224-0.944l-1.536-0.432c-1.856-0.528-3.2-1.248-4-2.16-0.816-0.912-1.216-2.016-1.216-3.312 0-0.832 0.176-1.584 0.512-2.288s0.816-1.296 1.44-1.824c0.624-0.512 1.344-0.912 2.192-1.184 0.832-0.288 1.744-0.416 2.736-0.416 1.36 0 2.624 0.208 3.792 0.608s2.112 0.96 2.816 1.664l-2.080 3.168c-0.32-0.352-0.736-0.656-1.216-0.928-0.48-0.256-1.008-0.464-1.568-0.624-0.56-0.144-1.136-0.224-1.712-0.224-0.56 0-1.056 0.080-1.472 0.224-0.416 0.16-0.752 0.368-0.976 0.64-0.24 0.272-0.352 0.608-0.352 0.992 0 0.304 0.080 0.544 0.256 0.752s0.48 0.4 0.896 0.592c0.416 0.192 0.976 0.384 1.696 0.608l1.568 0.48c1.84 0.56 3.184 1.248 4 2.080s1.232 1.92 1.232 3.248c0 1.168-0.288 2.192-0.88 3.088-0.576 0.896-1.408 1.584-2.48 2.096-1.072 0.48-2.336 0.736-3.808 0.736z"></path>
<path fill="#e21f26" style="fill: var(--color2, #e21f26)" d="M45.648 25.6c-1.36 0-2.688-0.208-3.984-0.624s-2.384-1.008-3.264-1.792l2.016-3.264c0.384 0.416 0.864 0.768 1.44 1.072s1.2 0.528 1.872 0.688c0.656 0.16 1.312 0.24 1.936 0.24 0.88 0 1.584-0.144 2.144-0.448s0.832-0.752 0.832-1.328c0-0.48-0.208-0.864-0.608-1.184s-1.152-0.64-2.224-0.944l-1.536-0.432c-1.856-0.528-3.2-1.248-4-2.16s-1.216-2.016-1.216-3.312c0-0.832 0.176-1.584 0.512-2.288s0.816-1.296 1.44-1.824c0.624-0.512 1.344-0.912 2.192-1.184 0.832-0.288 1.744-0.416 2.736-0.416 1.36 0 2.624 0.208 3.792 0.608s2.112 0.96 2.816 1.664l-2.080 3.168c-0.32-0.352-0.736-0.656-1.216-0.928-0.48-0.256-1.008-0.464-1.568-0.624-0.56-0.144-1.136-0.224-1.712-0.224-0.56 0-1.056 0.080-1.472 0.224-0.416 0.16-0.752 0.368-0.976 0.64s-0.352 0.608-0.352 0.992c0 0.304 0.080 0.544 0.256 0.752s0.48 0.4 0.896 0.592c0.416 0.192 0.976 0.384 1.696 0.608l1.568 0.48c1.84 0.56 3.184 1.248 4 2.080s1.232 1.92 1.232 3.248c0 1.168-0.288 2.192-0.88 3.088-0.576 0.896-1.408 1.584-2.48 2.096-1.072 0.48-2.336 0.736-3.808 0.736z"></path>
<path fill="#e21f26" style="fill: var(--color2, #e21f26)" d="M53.792 30.4v-18.4h3.76v1.616c0.512-0.592 1.152-1.072 1.936-1.424s1.696-0.528 2.736-0.528c1.296 0 2.448 0.304 3.456 0.896s1.808 1.424 2.4 2.512c0.576 1.072 0.88 2.336 0.88 3.776 0 1.008-0.16 1.952-0.496 2.816s-0.8 1.632-1.408 2.288c-0.608 0.656-1.328 1.152-2.16 1.52s-1.744 0.544-2.736 0.544c-0.8 0-1.536-0.128-2.192-0.384-0.672-0.256-1.264-0.624-1.792-1.088v5.856h-4.384zM61.408 22.256c0.624 0 1.2-0.144 1.696-0.416s0.88-0.672 1.168-1.184c0.288-0.512 0.432-1.12 0.432-1.824s-0.144-1.312-0.432-1.824c-0.288-0.512-0.688-0.912-1.184-1.184s-1.056-0.416-1.68-0.416c-0.624 0-1.184 0.144-1.68 0.416s-0.88 0.672-1.168 1.184c-0.288 0.512-0.432 1.12-0.432 1.824s0.144 1.312 0.432 1.824c0.288 0.512 0.672 0.912 1.168 1.184s1.056 0.416 1.68 0.416z"></path>
<path fill="#e21f26" style="fill: var(--color2, #e21f26)" d="M69.984 25.6v-13.6h4.352v13.6h-4.352z"></path>
<path fill="#e21f26" style="fill: var(--color2, #e21f26)" d="M72.208 11.2c-0.656 0-1.216-0.224-1.696-0.656s-0.72-1.024-0.72-1.76c0-0.736 0.24-1.312 0.72-1.744s1.040-0.64 1.696-0.64c0.64 0 1.2 0.208 1.68 0.64s0.704 1.008 0.704 1.744c0 0.736-0.24 1.328-0.704 1.76-0.48 0.432-1.040 0.656-1.68 0.656z"></path>
<path fill="#e21f26" style="fill: var(--color2, #e21f26)" d="M75.712 25.6v-13.6h4.352v1.488c0.512-0.64 1.104-1.104 1.792-1.392s1.424-0.432 2.176-0.432c1.28 0 2.32 0.256 3.152 0.752 0.816 0.496 1.424 1.152 1.824 1.936 0.4 0.8 0.592 1.632 0.592 2.512v8.736h-4.352v-7.376c0-0.816-0.224-1.456-0.64-1.92-0.432-0.464-1.056-0.704-1.888-0.704-0.528 0-0.992 0.112-1.392 0.352s-0.704 0.56-0.928 0.976c-0.224 0.416-0.336 0.896-0.336 1.44v7.232h-4.352z"></path>
<path fill="#fff" style="fill: var(--color1, #fff)" d="M93.136 25.6v-19.2h4.4v19.2h-4.4z"></path>
<path fill="#fff" style="fill: var(--color1, #fff)" d="M98.88 25.6v-13.6h4.352v1.488c0.512-0.64 1.104-1.104 1.792-1.392s1.424-0.432 2.176-0.432c1.28 0 2.32 0.256 3.152 0.752 0.816 0.496 1.424 1.152 1.824 1.936 0.4 0.8 0.592 1.632 0.592 2.512v8.736h-4.352v-7.376c0-0.816-0.224-1.456-0.64-1.92-0.432-0.464-1.056-0.704-1.888-0.704-0.528 0-0.992 0.112-1.392 0.352s-0.704 0.56-0.928 0.976c-0.224 0.416-0.336 0.896-0.336 1.44v7.232h-4.352z"></path>
<path fill="#fff" style="fill: var(--color1, #fff)" d="M114.112 25.6v-13.6h4.352v1.488c0.512-0.64 1.104-1.104 1.792-1.392s1.424-0.432 2.176-0.432c1.28 0 2.32 0.256 3.152 0.752 0.816 0.496 1.424 1.152 1.824 1.936 0.4 0.8 0.592 1.632 0.592 2.512v8.736h-4.352v-7.376c0-0.816-0.224-1.456-0.64-1.92-0.432-0.464-1.056-0.704-1.888-0.704-0.528 0-0.992 0.112-1.392 0.352s-0.704 0.56-0.928 0.976c-0.224 0.416-0.336 0.896-0.336 1.44v7.232h-4.352z"></path>
</symbol>
<symbol id="hide" viewBox="0 0 32 32">
<path fill="#4d4d4d" style="fill: var(--color1, #4d4d4d)" d="M19.973 16.269l1.817-1.817c0.132 0.495 0.21 1.012 0.21 1.548 0 3.308-2.692 6-6 6-0.536 0-1.053-0.077-1.548-0.21l1.817-1.817c1.987-0.136 3.568-1.716 3.703-3.703zM31.874 15.514c-0.123-0.221-1.867-3.278-5.277-5.869l-1.455 1.455c2.486 1.828 4.062 3.96 4.682 4.9-1.185 1.805-5.835 7.999-13.824 7.999-1.198 0-2.312-0.153-3.36-0.398l-1.643 1.643c1.511 0.463 3.171 0.755 5.003 0.755 10.468 0 15.658-9.126 15.874-9.514 0.168-0.302 0.168-0.669 0-0.972zM27.707 5.707l-22 22c-0.195 0.195-0.451 0.293-0.707 0.293s-0.512-0.098-0.707-0.293c-0.391-0.391-0.391-1.024 0-1.414l2.799-2.799c-4.525-2.732-6.824-6.753-6.966-7.008-0.168-0.302-0.168-0.669 0-0.972 0.216-0.388 5.406-9.514 15.874-9.514 2.707 0 5.051 0.617 7.056 1.53l3.237-3.237c0.391-0.391 1.024-0.391 1.414 0s0.391 1.024 0 1.414zM8.583 22.003l2.532-2.532c-0.699-0.981-1.115-2.177-1.115-3.471 0-3.308 2.691-6 6-6 1.294 0 2.49 0.416 3.471 1.115l2.047-2.047c-1.617-0.648-3.456-1.068-5.518-1.068-7.989 0-12.638 6.194-13.823 7.998 0.752 1.141 2.915 4.028 6.407 6.004zM12.567 18.019l5.452-5.452c-0.595-0.351-1.28-0.567-2.019-0.567-2.206 0-4 1.794-4 4 0 0.74 0.216 1.424 0.567 2.019z"></path>
</symbol>
</defs>
</svg>
